<mxfile host="app.diagrams.net" agent="Mozilla/5.0 (Macintosh; Intel Mac OS X 10_15_7) AppleWebKit/537.36 (KHTML, like Gecko) Chrome/130.0.0.0 Safari/537.36" version="24.8.6">
  <diagram id="C5RBs43oDa-KdzZeNtuy" name="Page-1">
    <mxGraphModel dx="1004" dy="637" grid="1" gridSize="10" guides="1" tooltips="1" connect="1" arrows="1" fold="1" page="1" pageScale="1" pageWidth="827" pageHeight="1169" math="0" shadow="0">
      <root>
        <mxCell id="WIyWlLk6GJQsqaUBKTNV-0" />
        <mxCell id="WIyWlLk6GJQsqaUBKTNV-1" parent="WIyWlLk6GJQsqaUBKTNV-0" />
        <mxCell id="6Yib5U76KsZDdD50bOUT-60" value="" style="rounded=0;html=1;jettySize=auto;orthogonalLoop=1;fontSize=11;endArrow=block;endFill=0;endSize=8;strokeWidth=1;shadow=0;labelBackgroundColor=none;edgeStyle=orthogonalEdgeStyle;" edge="1" parent="WIyWlLk6GJQsqaUBKTNV-1" source="6Yib5U76KsZDdD50bOUT-63" target="6Yib5U76KsZDdD50bOUT-67">
          <mxGeometry relative="1" as="geometry" />
        </mxCell>
        <mxCell id="6Yib5U76KsZDdD50bOUT-61" value="" style="edgeStyle=orthogonalEdgeStyle;rounded=0;orthogonalLoop=1;jettySize=auto;html=1;" edge="1" parent="WIyWlLk6GJQsqaUBKTNV-1" source="6Yib5U76KsZDdD50bOUT-63" target="6Yib5U76KsZDdD50bOUT-78">
          <mxGeometry relative="1" as="geometry" />
        </mxCell>
        <mxCell id="6Yib5U76KsZDdD50bOUT-62" value="" style="edgeStyle=orthogonalEdgeStyle;rounded=0;orthogonalLoop=1;jettySize=auto;html=1;" edge="1" parent="WIyWlLk6GJQsqaUBKTNV-1" source="6Yib5U76KsZDdD50bOUT-63" target="6Yib5U76KsZDdD50bOUT-81">
          <mxGeometry relative="1" as="geometry" />
        </mxCell>
        <mxCell id="6Yib5U76KsZDdD50bOUT-63" value="Generate Moves" style="rounded=1;whiteSpace=wrap;html=1;fontSize=12;glass=0;strokeWidth=1;shadow=0;" vertex="1" parent="WIyWlLk6GJQsqaUBKTNV-1">
          <mxGeometry x="294" y="280" width="120" height="40" as="geometry" />
        </mxCell>
        <mxCell id="6Yib5U76KsZDdD50bOUT-64" value="" style="edgeStyle=orthogonalEdgeStyle;rounded=0;orthogonalLoop=1;jettySize=auto;html=1;" edge="1" parent="WIyWlLk6GJQsqaUBKTNV-1" source="6Yib5U76KsZDdD50bOUT-67" target="6Yib5U76KsZDdD50bOUT-71">
          <mxGeometry relative="1" as="geometry" />
        </mxCell>
        <mxCell id="6Yib5U76KsZDdD50bOUT-65" value="" style="edgeStyle=orthogonalEdgeStyle;rounded=0;orthogonalLoop=1;jettySize=auto;html=1;" edge="1" parent="WIyWlLk6GJQsqaUBKTNV-1" source="6Yib5U76KsZDdD50bOUT-67" target="6Yib5U76KsZDdD50bOUT-76">
          <mxGeometry relative="1" as="geometry" />
        </mxCell>
        <mxCell id="6Yib5U76KsZDdD50bOUT-66" value="" style="edgeStyle=orthogonalEdgeStyle;rounded=0;orthogonalLoop=1;jettySize=auto;html=1;" edge="1" parent="WIyWlLk6GJQsqaUBKTNV-1" source="6Yib5U76KsZDdD50bOUT-67" target="6Yib5U76KsZDdD50bOUT-84">
          <mxGeometry relative="1" as="geometry" />
        </mxCell>
        <mxCell id="6Yib5U76KsZDdD50bOUT-67" value="Evaluate Position" style="rhombus;whiteSpace=wrap;html=1;shadow=0;fontFamily=Helvetica;fontSize=12;align=center;strokeWidth=1;spacing=6;spacingTop=-4;" vertex="1" parent="WIyWlLk6GJQsqaUBKTNV-1">
          <mxGeometry x="304" y="370" width="100" height="80" as="geometry" />
        </mxCell>
        <mxCell id="6Yib5U76KsZDdD50bOUT-68" value="" style="edgeStyle=orthogonalEdgeStyle;rounded=0;orthogonalLoop=1;jettySize=auto;html=1;entryX=0;entryY=0.5;entryDx=0;entryDy=0;" edge="1" parent="WIyWlLk6GJQsqaUBKTNV-1" source="6Yib5U76KsZDdD50bOUT-71" target="6Yib5U76KsZDdD50bOUT-72">
          <mxGeometry relative="1" as="geometry">
            <mxPoint x="580" y="410" as="targetPoint" />
          </mxGeometry>
        </mxCell>
        <mxCell id="6Yib5U76KsZDdD50bOUT-69" value="" style="edgeStyle=orthogonalEdgeStyle;rounded=0;orthogonalLoop=1;jettySize=auto;html=1;" edge="1" parent="WIyWlLk6GJQsqaUBKTNV-1" source="6Yib5U76KsZDdD50bOUT-71" target="6Yib5U76KsZDdD50bOUT-73">
          <mxGeometry relative="1" as="geometry" />
        </mxCell>
        <mxCell id="6Yib5U76KsZDdD50bOUT-70" value="" style="edgeStyle=orthogonalEdgeStyle;rounded=0;orthogonalLoop=1;jettySize=auto;html=1;" edge="1" parent="WIyWlLk6GJQsqaUBKTNV-1" source="6Yib5U76KsZDdD50bOUT-71" target="6Yib5U76KsZDdD50bOUT-74">
          <mxGeometry relative="1" as="geometry" />
        </mxCell>
        <mxCell id="6Yib5U76KsZDdD50bOUT-71" value="Evaluation Variables" style="rhombus;whiteSpace=wrap;html=1;shadow=0;fontFamily=Helvetica;fontSize=12;align=center;strokeWidth=1;spacing=6;spacingTop=-4;" vertex="1" parent="WIyWlLk6GJQsqaUBKTNV-1">
          <mxGeometry x="430" y="370" width="100" height="80" as="geometry" />
        </mxCell>
        <mxCell id="6Yib5U76KsZDdD50bOUT-72" value="Piece Values/Piece activity." style="ellipse;whiteSpace=wrap;html=1;shadow=0;strokeWidth=1;spacing=6;spacingTop=-4;" vertex="1" parent="WIyWlLk6GJQsqaUBKTNV-1">
          <mxGeometry x="550" y="370" width="80" height="80" as="geometry" />
        </mxCell>
        <mxCell id="6Yib5U76KsZDdD50bOUT-73" value="King Safety" style="ellipse;whiteSpace=wrap;html=1;shadow=0;strokeWidth=1;spacing=6;spacingTop=-4;" vertex="1" parent="WIyWlLk6GJQsqaUBKTNV-1">
          <mxGeometry x="480" y="230" width="80" height="80" as="geometry" />
        </mxCell>
        <mxCell id="6Yib5U76KsZDdD50bOUT-74" value="Pawn Structure" style="ellipse;whiteSpace=wrap;html=1;shadow=0;strokeWidth=1;spacing=6;spacingTop=-4;" vertex="1" parent="WIyWlLk6GJQsqaUBKTNV-1">
          <mxGeometry x="480" y="480" width="80" height="80" as="geometry" />
        </mxCell>
        <mxCell id="6Yib5U76KsZDdD50bOUT-75" value="" style="edgeStyle=orthogonalEdgeStyle;rounded=0;orthogonalLoop=1;jettySize=auto;html=1;" edge="1" parent="WIyWlLk6GJQsqaUBKTNV-1" source="6Yib5U76KsZDdD50bOUT-76" target="6Yib5U76KsZDdD50bOUT-77">
          <mxGeometry relative="1" as="geometry" />
        </mxCell>
        <mxCell id="6Yib5U76KsZDdD50bOUT-76" value="Search" style="shape=trapezoid;perimeter=trapezoidPerimeter;whiteSpace=wrap;html=1;fixedSize=1;shadow=0;strokeWidth=1;spacing=6;spacingTop=-4;" vertex="1" parent="WIyWlLk6GJQsqaUBKTNV-1">
          <mxGeometry x="284" y="500" width="120" height="60" as="geometry" />
        </mxCell>
        <mxCell id="6Yib5U76KsZDdD50bOUT-77" value="Depth" style="shape=hexagon;perimeter=hexagonPerimeter2;whiteSpace=wrap;html=1;fixedSize=1;shadow=0;strokeWidth=1;spacing=6;spacingTop=-4;" vertex="1" parent="WIyWlLk6GJQsqaUBKTNV-1">
          <mxGeometry x="140" y="520" width="120" height="80" as="geometry" />
        </mxCell>
        <mxCell id="6Yib5U76KsZDdD50bOUT-78" value="Legal Moves" style="whiteSpace=wrap;html=1;rounded=1;glass=0;strokeWidth=1;shadow=0;" vertex="1" parent="WIyWlLk6GJQsqaUBKTNV-1">
          <mxGeometry x="174" y="270" width="80" height="60" as="geometry" />
        </mxCell>
        <mxCell id="6Yib5U76KsZDdD50bOUT-79" value="" style="edgeStyle=orthogonalEdgeStyle;rounded=0;orthogonalLoop=1;jettySize=auto;html=1;" edge="1" parent="WIyWlLk6GJQsqaUBKTNV-1" source="6Yib5U76KsZDdD50bOUT-81" target="6Yib5U76KsZDdD50bOUT-82">
          <mxGeometry relative="1" as="geometry" />
        </mxCell>
        <mxCell id="6Yib5U76KsZDdD50bOUT-80" value="" style="edgeStyle=orthogonalEdgeStyle;rounded=0;orthogonalLoop=1;jettySize=auto;html=1;" edge="1" parent="WIyWlLk6GJQsqaUBKTNV-1" source="6Yib5U76KsZDdD50bOUT-81" target="6Yib5U76KsZDdD50bOUT-83">
          <mxGeometry relative="1" as="geometry" />
        </mxCell>
        <mxCell id="6Yib5U76KsZDdD50bOUT-81" value="Board Reporsentation" style="rhombus;whiteSpace=wrap;html=1;rounded=1;glass=0;strokeWidth=1;shadow=0;" vertex="1" parent="WIyWlLk6GJQsqaUBKTNV-1">
          <mxGeometry x="314" y="140" width="146" height="80" as="geometry" />
        </mxCell>
        <mxCell id="6Yib5U76KsZDdD50bOUT-82" value="GUI" style="whiteSpace=wrap;html=1;rounded=1;glass=0;strokeWidth=1;shadow=0;" vertex="1" parent="WIyWlLk6GJQsqaUBKTNV-1">
          <mxGeometry x="164" y="190" width="120" height="60" as="geometry" />
        </mxCell>
        <mxCell id="6Yib5U76KsZDdD50bOUT-83" value="2D Array" style="whiteSpace=wrap;html=1;rounded=1;glass=0;strokeWidth=1;shadow=0;" vertex="1" parent="WIyWlLk6GJQsqaUBKTNV-1">
          <mxGeometry x="294" y="50" width="120" height="60" as="geometry" />
        </mxCell>
        <mxCell id="6Yib5U76KsZDdD50bOUT-84" value="Draw Rules (50 move rule, repetition)." style="shape=trapezoid;perimeter=trapezoidPerimeter;whiteSpace=wrap;html=1;fixedSize=1;shadow=0;strokeWidth=1;spacing=6;spacingTop=-4;" vertex="1" parent="WIyWlLk6GJQsqaUBKTNV-1">
          <mxGeometry x="114" y="380" width="120" height="60" as="geometry" />
        </mxCell>
      </root>
    </mxGraphModel>
  </diagram>
</mxfile>
